#!OML:ASF G:\JayActor3\Patient Classification 1\Patient 1\Session 6\male.ASF
:FULLY-SPECIFIED
:DEGREES
1651
root 4.25308 15.5681 -22.5695 171.029 -45.9999 -176.839
lowerback 8.95982 1.20767 3.08892
upperback 0.971623 1.86021 0.0465602
thorax -3.91568 0.851579 -1.91205
lowerneck 9.52488 -2.39709 0.609646
upperneck 6.86894 -3.52591 -0.374966
head 0.542384 -1.9162 -0.135222
rclavicle -2.4758e-014 -5.56597e-015
rhumerus 22.4739 30.7423 -12.3119
rradius 134.275
rwrist -74.9603
rhand -26.1254 -7.53679
rfingers 7.12502
rthumb 0.424582 -37.5161
lclavicle -2.4758e-014 -5.56597e-015
lhumerus -40.998 -9.5594 82.7649
lradius 29.2661
lwrist 22.557
lhand -8.64859 8.19864
lfingers 7.12502
lthumb 17.2847 37.45
rfemur -13.8637 -10.3534 14.3769
rtibia 49.5006
rfoot -24.5198 -6.99259
rtoes -11.0556
lfemur -9.83647 22.6285 -4.69111
ltibia 42.1147
lfoot -19.2065 0.676227
ltoes -7.21915
1652
root 4.24657 15.5727 -22.582 171.051 -46.0122 -176.821
lowerback 8.91677 1.2173 3.11532
upperback 0.926546 1.87684 0.0476057
thorax -3.9369 0.859306 -1.92733
lowerneck 9.53257 -2.41468 0.612355
upperneck 6.66246 -3.53594 -0.383521
head 0.477629 -1.91619 -0.135706
rclavicle 3.16502e-015 -7.95139e-015
rhumerus 22.5042 30.3759 -12.2733
rradius 134.201
rwrist -74.919
rhand -26.079 -7.49268
rfingers 7.12502
rthumb 0.469433 -37.4719
lclavicle 3.16502e-015 -7.95139e-015
lhumerus -41.0262 -9.52367 82.725
lradius 29.2735
lwrist 22.5712
lhand -8.6706 8.18099
lfingers 7.12502
lthumb 17.2635 37.4342
rfemur -13.794 -10.2979 14.4211
rtibia 49.4097
rfoot -24.5487 -7.05544
rtoes -11.0533
lfemur -9.76863 22.5621 -4.67394
ltibia 42.0052
lfoot -19.183 0.713337
ltoes -7.21688
1653
root 4.24001 15.5772 -22.5945 171.082 -46.0256 -176.817
lowerback 8.88349 1.22604 3.1331
upperback 0.874032 1.89196 0.0450914
thorax -3.97156 0.866129 -1.94171
lowerneck 9.54454 -2.4327 0.61745
upperneck 6.45928 -3.5467 -0.39967
head 0.412956 -1.91668 -0.138851
rclavicle 9.14596e-014 1.13307e-014
rhumerus 22.5318 30.0236 -12.2425
rradius 134.125
rwrist -74.8957
rhand -26.0289 -7.44721
rfingers 7.12502
rthumb 0.51788 -37.4263
lclavicle 9.14596e-014 1.13307e-014
lhumerus -41.0656 -9.4814 82.6791
lradius 29.2809
lwrist 22.5905
lhand -8.70427 8.16615
lfingers 7.12502
lthumb 17.2311 37.4222
rfemur -13.7256 -10.2448 14.4537
rtibia 49.3214
rfoot -24.5744 -7.11977
rtoes -11.0828
lfemur -9.69899 22.5053 -4.66522
ltibia 41.8949
lfoot -19.1575 0.745742
ltoes -7.22452
1654
root 4.23333 15.5817 -22.6068 171.117 -46.0389 -176.821
lowerback 8.85665 1.23507 3.14794
upperback 0.818328 1.90733 0.0382684
thorax -4.01306 0.872933 -1.95919
lowerneck 9.54654 -2.45403 0.627623
upperneck 6.26647 -3.5618 -0.423322
head 0.352682 -1.91935 -0.145253
rclavicle 1.0708e-013 -1.86858e-014
rhumerus 22.553 29.6824 -12.217
rradius 134.049
rwrist -74.8633
rhand -25.9755 -7.39357
rfingers 7.12502
rthumb 0.569421 -37.3726
lclavicle 1.0708e-013 -1.86858e-014
lhumerus -41.1089 -9.44308 82.6292
lradius 29.2864
lwrist 22.6152
lhand -8.75254 8.15447
lfingers 7.12502
lthumb 17.1846 37.4146
rfemur -13.6565 -10.1947 14.4774
rtibia 49.2345
rfoot -24.5984 -7.18076
rtoes -11.132
lfemur -9.62448 22.4561 -4.66088
ltibia 41.7811
lfoot -19.1308 0.772984
ltoes -7.23497
1655
root 4.22641 15.5863 -22.6192 171.167 -46.0545 -176.848
lowerback 8.83402 1.24466 3.15187
upperback 0.760002 1.92239 0.0251199
thorax -4.0598 0.879605 -1.97724
lowerneck 9.54495 -2.47914 0.636225
upperneck 6.07941 -3.58248 -0.451133
head 0.294551 -1.92494 -0.152653
rclavicle 8.42661e-015 1.05356e-014
rhumerus 22.5697 29.3519 -12.19
rradius 133.978
rwrist -74.8222
rhand -25.9267 -7.34606
rfingers 7.12502
rthumb 0.61652 -37.3249
lclavicle 8.42661e-015 1.05356e-014
lhumerus -41.1538 -9.41031 82.5767
lradius 29.2857
lwrist 22.6462
lhand -8.75027 8.16388
lfingers 7.12502
lthumb 17.1868 37.4238
rfemur -13.5844 -10.1536 14.4793
rtibia 49.1483
rfoot -24.6222 -7.22746
rtoes -11.1674
lfemur -9.54216 22.4136 -4.67252
ltibia 41.6607
lfoot -19.1053 0.800569
ltoes -7.26748
1656
root 4.21936 15.591 -22.6315 171.207 -46.0676 -176.86
lowerback 8.80099 1.2561 3.16924
upperback 0.70874 1.94046 0.0115975
thorax -4.09272 0.887776 -2.00315
lowerneck 9.53428 -2.50943 0.645468
upperneck 5.88663 -3.60967 -0.478455
head 0.235962 -1.93355 -0.159932
rclavicle -1.22175e-013 -9.14409e-015
rhumerus 22.5771 29.019 -12.1582
rradius 133.914
rwrist -74.7599
rhand -25.8877 -7.30076
rfingers 7.12502
rthumb 0.654247 -37.2795
lclavicle -1.22175e-013 -9.14409e-015
lhumerus -41.1814 -9.39305 82.5234
lradius 29.2754
lwrist 22.6808
lhand -8.71583 8.18442
lfingers 7.12502
lthumb 17.22 37.4414
rfemur -13.5109 -10.1152 14.4918
rtibia 49.0594
rfoot -24.644 -7.27457
rtoes -11.2075
lfemur -9.45632 22.3772 -4.67123
ltibia 41.5357
lfoot -19.0791 0.826921
ltoes -7.31932
1657
root 4.21225 15.5957 -22.644 171.245 -46.0708 -176.864
lowerback 8.76158 1.27063 3.19404
upperback 0.65865 1.96309 -0.00120945
thorax -4.12036 0.898146 -2.03281
lowerneck 9.52013 -2.54259 0.648562
upperneck 5.6901 -3.64131 -0.502196
head 0.176819 -1.94441 -0.165046
rclavicle 4.44781e-015 3.97569e-015
rhumerus 22.585 28.6926 -12.1166
rradius 133.859
rwrist -74.6713
rhand -25.8609 -7.25612
rfingers 7.12502
rthumb 0.680074 -37.2348
lclavicle 4.44781e-015 3.97569e-015
lhumerus -41.2019 -9.38611 82.4702
lradius 29.2572
lwrist 22.7127
lhand -8.63921 8.22025
lfingers 7.12502
lthumb 17.2937 37.4708
rfemur -13.4414 -10.0712 14.5126
rtibia 48.9686
rfoot -24.6669 -7.31362
rtoes -11.2139
lfemur -9.36741 22.3509 -4.66053
ltibia 41.4059
lfoot -19.053 0.850028
ltoes -7.36325
1658
root 4.20494 15.6005 -22.6564 171.273 -46.0768 -176.856
lowerback 8.71547 1.28366 3.23039
upperback 0.614878 1.98427 -0.0136762
thorax -4.13734 0.907769 -2.0681
lowerneck 9.5073 -2.57623 0.647298
upperneck 5.48085 -3.6738 -0.518678
head 0.113645 -1.95559 -0.167089
rclavicle 3.04575e-014 9.93923e-016
rhumerus 22.5945 28.368 -12.0663
rradius 133.81
rwrist -74.5578
rhand -25.85 -7.2291
rfingers 7.12502
rthumb 0.690665 -37.2077
lclavicle 3.04575e-014 9.93923e-016
lhumerus -41.2089 -9.37894 82.4117
lradius 29.2335
lwrist 22.7333
lhand -8.53493 8.26894
lfingers 7.12502
lthumb 17.3941 37.5107
rfemur -13.367 -10.0338 14.5403
rtibia 48.8751
rfoot -24.6901 -7.34801
rtoes -11.1859
lfemur -9.27595 22.322 -4.64059
ltibia 41.2732
lfoot -19.0282 0.87168
ltoes -7.4135
1659
root 4.19757 15.6055 -22.6688 171.305 -46.0815 -176.852
lowerback 8.66215 1.29644 3.26336
upperback 0.573165 2.0044 -0.0265269
thorax -4.14825 0.917039 -2.10149
lowerneck 9.49773 -2.60817 0.6387
upperneck 5.26343 -3.70484 -0.527519
head 0.0475955 -1.96614 -0.165533
rclavicle -1.92976e-014 -6.16232e-015
rhumerus 22.6088 28.0535 -12.0031
rradius 133.766
rwrist -74.4244
rhand -25.8456 -7.20226
rfingers 7.12502
rthumb 0.694908 -37.1809
lclavicle -1.92976e-014 -6.16232e-015
lhumerus -41.2116 -9.36955 82.3513
lradius 29.2063
lwrist 22.7392
lhand -8.43433 8.31773
lfingers 7.12502
lthumb 17.4909 37.5509
rfemur -13.2956 -9.99646 14.566
rtibia 48.7826
rfoot -24.7155 -7.37917
rtoes -11.1351
lfemur -9.18338 22.2952 -4.62305
ltibia 41.1356
lfoot -19.0031 0.888266
ltoes -7.44802
1660
root 4.19019 15.6104 -22.6811 171.338 -46.0904 -176.848
lowerback 8.60893 1.30594 3.29362
upperback 0.530659 2.01995 -0.0377457
thorax -4.16044 0.924043 -2.13113
lowerneck 9.49569 -2.63496 0.624806
upperneck 5.03985 -3.72976 -0.533283
head -0.0215258 -1.97378 -0.162163
rclavicle -6.85248e-014 -3.57812e-015
rhumerus 22.6315 27.7524 -11.9257
rradius 133.724
rwrist -74.2855
rhand -25.8493 -7.17774
rfingers 7.12502
rthumb 0.691336 -37.1564
lclavicle -6.85248e-014 -3.57812e-015
lhumerus -41.2174 -9.35976 82.2952
lradius 29.177
lwrist 22.7339
lhand -8.36458 8.35854
lfingers 7.12502
lthumb 17.558 37.5857
rfemur -13.2254 -9.96223 14.5911
rtibia 48.6916
rfoot -24.7409 -7.41468
rtoes -11.0891
lfemur -9.09129 22.2637 -4.60775
ltibia 40.994
lfoot -18.9764 0.901258
ltoes -7.46703
1661
root 4.18273 15.6154 -22.6933 171.388 -46.1054 -176.867
lowerback 8.56151 1.31286 3.30435
upperback 0.48031 2.03068 -0.0500543
thorax -4.18495 0.92874 -2.1507
lowerneck 9.50857 -2.65548 0.602336
upperneck 4.81577 -3.74792 -0.535682
head -0.0931051 -1.97842 -0.156321
rclavicle -6.2319e-014 -8.54774e-015
rhumerus 22.6638 27.4714 -11.8346
rradius 133.679
rwrist -74.1633
rhand -25.8489 -7.15452
rfingers 7.12502
rthumb 0.691657 -37.1331
lclavicle -6.2319e-014 -8.54774e-015
lhumerus -41.2397 -9.34445 82.2455
lradius 29.1477
lwrist 22.7143
lhand -8.32814 8.3855
lfingers 7.12502
lthumb 17.5931 37.6095
rfemur -13.1577 -9.93192 14.5972
rtibia 48.6048
rfoot -24.7668 -7.45418
rtoes -11.0574
lfemur -8.99826 22.2269 -4.61324
ltibia 40.8483
lfoot -18.9509 0.913387
ltoes -7.47593
1662
root 4.17533 15.6203 -22.7054 171.439 -46.121 -176.888
lowerback 8.51666 1.31862 3.31021
upperback 0.427252 2.03967 -0.0592445
thorax -4.2141 0.932552 -2.16423
lowerneck 9.52086 -2.6723 0.578728
upperneck 4.59661 -3.76175 -0.542205
head -0.163265 -1.98102 -0.151706
rclavicle -6.42571e-014 1.98785e-015
rhumerus 22.702 27.2016 -11.7314
rradius 133.628
rwrist -74.0609
rhand -25.8412 -7.11925
rfingers 7.12502
rthumb 0.699132 -37.0978
lclavicle -6.42571e-014 1.98785e-015
lhumerus -41.2709 -9.32258 82.2005
lradius 29.1213
lwrist 22.6819
lhand -8.33546 8.39971
lfingers 7.12502
lthumb 17.586 37.6243
rfemur -13.0924 -9.89591 14.6042
rtibia 48.5211
rfoot -24.7926 -7.50567
rtoes -11.058
lfemur -8.90546 22.1866 -4.62042
ltibia 40.7027
lfoot -18.9262 0.925454
ltoes -7.47246
